<svg xmlns="http://www.w3.org/2000/svg" width="1024" height="1024" viewBox="0 0 1024 1024">
  <defs>
    <linearGradient id="bg" x1="0" y1="0" x2="0" y2="1">
      <stop offset="0" stop-color="#0E2438"/>
      <stop offset="1" stop-color="#06182A"/>
    </linearGradient>
    <radialGradient id="glow" cx="0.5" cy="0.44" r="0.62">
      <stop offset="0" stop-color="#23C2D6" stop-opacity="0.42"/>
      <stop offset="1" stop-color="#23C2D6" stop-opacity="0"/>
    </radialGradient>
    <linearGradient id="blade" x1="0" y1="0" x2="1" y2="0">
      <stop offset="0" stop-color="#86281E"/>
      <stop offset="0.5" stop-color="#D8492F"/>
      <stop offset="1" stop-color="#7C241B"/>
    </linearGradient>
    <linearGradient id="ring" x1="0" y1="0" x2="1" y2="1">
      <stop offset="0" stop-color="#DE4A30"/>
      <stop offset="1" stop-color="#94271C"/>
    </linearGradient>
    <filter id="soft" x="-40%" y="-40%" width="180%" height="180%">
      <feGaussianBlur stdDeviation="12"/>
    </filter>
  </defs>

  <rect x="0" y="0" width="1024" height="1024" rx="232" ry="232" fill="url(#bg)"/>
  <rect x="0" y="0" width="1024" height="1024" rx="232" ry="232" fill="url(#glow)"/>

  <g filter="url(#soft)" opacity="0.9">
    <circle cx="512" cy="648" r="150" fill="none" stroke="#3AE6EC" stroke-width="16"/>
    <path d="M512 152 L560 540 L464 540 Z" fill="#3AE6EC"/>
  </g>

  <rect x="478" y="800" width="68" height="112" rx="20" fill="url(#ring)"/>
  <rect x="460" y="884" width="104" height="32" rx="15" fill="#7C241B"/>

  <circle cx="512" cy="648" r="150" fill="none" stroke="url(#ring)" stroke-width="54"/>
  <circle cx="512" cy="648" r="121" fill="none" stroke="#46EAEF" stroke-width="9" opacity="0.92"/>
  <circle cx="512" cy="648" r="178" fill="none" stroke="#46EAEF" stroke-width="4" opacity="0.45"/>

  <rect x="466" y="532" width="92" height="44" rx="12" fill="url(#ring)"/>

  <path d="M512 150
           C 540 356, 556 460, 560 540
           L 464 540
           C 468 460, 484 356, 512 150 Z"
        fill="url(#blade)" stroke="#591A12" stroke-width="3"/>

  <path d="M512 178
           C 532 366, 546 462, 550 536
           L 528 536
           C 525 462, 520 356, 512 178 Z"
        fill="#46EAEF" opacity="0.92"/>

  <circle cx="512" cy="170" r="11" fill="#A6F6F9"/>
</svg>
